<svg xmlns="http://www.w3.org/2000/svg"  viewBox="0 0 1024 1024">
  <path d="m662.93 533.36-2.29 2.64H344.29l-2.39-2.25c-1.32-1.24-2.55-3.6-2.74-5.25s-.38-3.22-.42-3.5.28-1.73.7-3.23c1.21-4.31 5.43-5.77 16.71-5.77H366l.16-68.75c.08-37.81.13-69.31.11-70-.03-.69.35-1.25.84-1.25s.89-.67.89-1.5.67-1.5 1.5-1.5 1.5-.4 1.5-.89 1.09-1.17 2.43-1.5c1.34-.34 3.03-1.22 3.77-1.95.73-.74 4.14-2.6 7.57-4.14 3.43-1.53 6.23-3.15 6.23-3.59s1.58-1.37 3.5-2.07c1.92-.69 3.5-1.57 3.5-1.95s2.92-1.97 6.5-3.52c3.58-1.56 6.5-3.12 6.5-3.46 0-.35 2.92-1.87 6.5-3.39s6.5-3.13 6.5-3.57c0-.45 1.58-1.34 3.51-1.97 1.78-.59 3.08-.95 4.02-1.74 2.53-2.11 2.51-7.27 2.45-27.96 0-.86-.01-1.74-.01-2.65-.07-23.44.18-28.78 1.49-31.9.86-2.06 2.19-3.75 2.95-3.75s1.64-.67 1.95-1.5c.32-.83 1.27-1.5 2.11-1.5s1.53-.45 1.53-1 .57-1 1.28-1c.7 0 2.02-.79 2.93-1.75 2.24-2.37 4.58-4.25 5.3-4.25.33 0 2.04-1.35 3.79-3 1.76-1.64 3.78-2.99 4.48-3 .71 0 1.54-.68 1.86-1.5.31-.82 1.09-1.51 1.72-1.52.63 0 2.72-1.35 4.64-2.99 1.92-1.63 4.04-3.42 4.71-3.98.66-.56 1.67-1.01 2.24-1.01s1.6-.9 2.28-2c.69-1.1 1.82-2 2.51-2s1.26-.45 1.26-1 .69-1 1.53-1 1.79-.68 2.11-1.5c.31-.82 1.21-1.5 2-1.5.78 0 1.68-.68 2-1.5.31-.82 1.21-1.5 2-1.5.78 0 1.68-.68 2-1.5.31-.82 1.21-1.5 2-1.5.78 0 1.68-.68 2-1.5.31-.82 1.01-1.5 1.54-1.5s1.59-.56 2.36-1.25c2.84-2.55 4-3.37 5.71-4.02.96-.37 1.75-1.13 1.75-1.7s.69-1.03 1.53-1.03 1.79-.68 2.11-1.5c.31-.82 1.21-1.5 2-1.5.78 0 1.68-.68 2-1.5.31-.82 1.01-1.5 1.54-1.5s1.63-.66 2.44-1.47c1.92-1.93 11.78-1.28 13.97.92.85.85 2.2 1.55 2.98 1.55.79 0 1.43.4 1.43.89s1.12 1.18 2.5 1.52c1.38.35 2.5 1.07 2.5 1.61s.67.98 1.5.98 1.5.48 1.5 1.06.45.78 1 .44 1-.17 1 .37c0 .55.99 1.31 2.2 1.69 1.22.39 2.82 1.32 3.57 2.07.76.75 2.02 1.37 2.8 1.37.79 0 1.43.42 1.43.93 0 .52 1.01 1.25 2.25 1.64 1.24.38 2.47 1.02 2.75 1.41.6.85 5.4 3.49 9.25 5.08 1.51.62 2.75 1.54 2.75 2.04 0 .49.67.9 1.5.9s1.5.48 1.5 1.06.45.78 1 .44 1-.14 1 .44.67 1.06 1.5 1.06 1.5.48 1.5 1.06.45.78 1 .44 1-.14 1 .44.61 1.06 1.35 1.06 2.38.9 3.65 2 2.91 2 3.65 2 1.35.48 1.35 1.06.45.78 1 .44 1-.17 1 .37c0 .55 1.01 1.31 2.25 1.7 1.24.38 2.47.98 2.75 1.31.74.91 4.16 2.98 6.83 4.13 1.27.55 2.99 1.67 3.82 2.49.82.83 2.14 1.5 2.92 1.5.79 0 1.43.42 1.43.92 0 .51 1.58 1.44 3.5 2.08s3.5 1.54 3.5 2.01.86 1.13 1.91 1.46 2.28 1.38 2.75 2.32c.46.94 1.06 56.61 1.34 123.71l.5 122 12.5.26c6.88.15 13.17.56 14 .91.83.36 1.84.57 2.26.48.42-.08 1.68 1.31 2.8 3.1 2.55 4.06 2.09 9.41-1.13 13.11m-130.42-20.61.58 3.25h74.93l-.03-115.1-.02-115.11-2.24-1.89c-1.89-1.61-5.83-4.15-14.57-9.4-.91-.55-4.36-2.55-7.66-4.43-3.3-1.89-6.22-3.7-6.5-4.02-.28-.33-1.62-1.15-3-1.83s-3.71-2.02-5.19-2.98-7.55-4.51-13.5-7.9c-5.94-3.39-12.54-7.34-14.64-8.78-2.11-1.44-4.81-2.71-6-2.84l-2.17-.22-.28 134c-.16 73.7-.03 135.46.29 137.25M390 455.64v60.38l80.5-.52.26-82.94c.15-50.55-.11-83.31-.68-83.88-.59-.59-3.52.48-7.76 2.81-3.75 2.07-11.55 6.24-17.32 9.28s-18.15 9.66-27.5 14.7-19.08 10.16-21.63 11.38c-3.66 1.75-4.76 2.86-5.25 5.31-.34 1.7-.62 30.26-.62 63.48m237.85 368.34c-3.35 1.52-6.42 1.96-13.35 1.91-4.95-.03-10.19-.42-11.65-.86-6.32-1.91-14.72-7.35-17.9-11.6-1.83-2.44-3.71-4.43-4.19-4.43-.49 0-.6-.45-.26-1s.11-1-.5-1-.84-.45-.5-1 .11-1-.5-1-.84-.45-.5-1 .11-1-.5-1-.86-.42-.54-.93c.31-.51.11-1.22-.46-1.57s-.79-1.03-.5-1.5.09-1.13-.44-1.46-.74-1.22-.45-1.97.03-1.67-.57-2.05c-.67-.41-.85-2.01-.46-4.1.44-2.32.26-3.42-.54-3.42-.84 0-.97-1.48-.46-5.25.39-2.89.67-6.13.61-7.2-.05-1.08.39-2.54.98-3.25.59-.72.74-1.3.33-1.3s-.2-.66.46-1.46c.67-.8.95-1.88.62-2.41s-.18-1.11.32-1.29c.51-.19 1.07-1.24 1.26-2.34s.9-2.59 1.59-3.32 1.25-1.97 1.25-2.75c0-.79.45-1.43 1-1.43s1-.57 1-1.26 1.6-2.6 3.56-4.25c1.96-1.64 4.12-3.49 4.8-4.11 2.1-1.91 7.72-4.52 10.49-4.89 1.46-.19 2.65-.42 2.65-.5s4.16-.23 9.25-.32 9.25.22 9.25.69.67.59 1.5.28c.83-.32 1.5-.19 1.5.28 0 .48 1.13 1.15 2.52 1.49 2.55.65 4.92 2.28 9.2 6.34 1.3 1.24 2.8 2.25 3.33 2.25.57 0 .95-7.97.95-20v-20h21.02l-.52 114.5-20.5.57v-4.54c0-2.64-.46-4.53-1.11-4.53-.6 0-2.81 1.35-4.89 3-2.09 1.65-5.75 3.9-8.15 4.98m-185.79-2.07c-6.12 3.24-7.05 3.43-18.5 3.78-12.47.38-16.28-.38-25.27-5.03-3.78-1.97-11.22-9.29-13.22-13.03-.77-1.45-1.81-2.63-2.3-2.63s-.61-.45-.27-1 .11-1-.5-1-.84-.45-.5-1 .14-1-.44-1-1.01-.34-.94-.75c.06-.41.03-.97-.08-1.25s-.36-1.4-.56-2.5-.68-3.58-1.06-5.5c-.74-3.7-.7-14.78.06-19 .53-2.89 1.28-6.28 1.56-7 .11-.28.14-.84.08-1.25-.07-.41.36-.75.94-.75s.78-.45.44-1-.11-1 .5-1 .84-.45.5-1-.22-1 .27-1 1.53-1.22 2.31-2.71c1.98-3.78 8.07-10.29 9.63-10.29.71 0 1.29-.45 1.29-1s.71-1 1.57-1c.87 0 2.25-.67 3.07-1.5.83-.83 2.57-1.5 3.87-1.5 1.31 0 2.62-.4 2.92-.89.3-.48 5.29-.95 11.08-1.04 5.8-.08 11.2-.41 12.01-.72.82-.31 1.48-.02 1.48.65 0 .8.86 1 2.5.59 1.4-.35 2.5-.19 2.5.36 0 .54.67.73 1.5.41.83-.31 1.5-.05 1.5.59s.45.89 1 .55 1-.11 1 .5.45.84 1 .5 1-.11 1 .5.45.84 1 .5 1-.14 1 .44.48 1.06 1.07 1.06c2.23 0 8.07 5.46 11.79 11.03 5.41 8.09 7.44 16.29 6.96 28.05-.54 13.29-3.32 20.27-11.24 28.28-3.36 3.39-8.97 7.67-12.52 9.55m295.68 1.26c-6.11 2.49-8.17 2.82-17.09 2.76-17.52-.11-23.21-2.89-36.65-17.89-2.44-2.72-5-7.71-4.31-8.4.36-.35.13-.64-.49-.64-.63 0-.88-.67-.56-1.5.31-.83.05-1.5-.59-1.5s-.89-.45-.55-1 .25-1.56-.19-2.25c-1.39-2.15-1.11-20.94.37-24.5.74-1.79 1.11-3.25.82-3.25s.61-1.8 2-4 2.19-4 1.79-4 .27-.71 1.5-1.57c1.24-.86 2.01-1.95 1.72-2.41-.43-.7 1.99-3.06 6.99-6.8.55-.41 3.03-1.63 5.5-2.71 2.47-1.07 4.72-2.25 5-2.6 1.23-1.6 25.52-2.94 27.78-1.54.57.35 1.76.36 2.63.03.87-.34 1.59-.13 1.59.46s.67.82 1.5.5c.83-.31 1.5-.05 1.5.59s.45.89 1 .55 1-.16 1 .41c0 .56.56.81 1.25.55.69-.27 2.47.65 3.96 2.03 1.48 1.38 2.93 2.51 3.21 2.51 1.35 0 9.02 9.03 11.08 13.04 4.34 8.47 5.83 15.59 5.11 24.42-1.56 19.32-10.35 31.99-26.87 38.71m-327.9-127.92c.09.41-6.14.75-13.84.75-13.81 0-14.6-.18-14.12-3.25.07-.41-.23-.75-.67-.75-.43 0-.86-.97-.95-2.16s-.74-2.53-1.46-2.98c-.71-.46-.91-.84-.43-.84.48-.01.37-.62-.24-1.36s-.82-1.64-.45-2c.36-.36.1-.66-.57-.66-.68 0-.97-.42-.65-.93.31-.51.11-1.22-.46-1.57s-.77-1.06-.46-1.57c.32-.51.03-.93-.65-.93-.67 0-.93-.3-.57-.66.37-.36.16-1.26-.45-2s-.72-1.35-.24-1.36c.48 0 .32-.36-.35-.79-.68-.43-1.43-1.88-1.68-3.23s-.54-2.68-.64-2.96c-.11-.28-.14-.84-.08-1.25.07-.41-.36-.75-.94-.75s-.8-.42-.48-.93c.31-.51.11-1.22-.46-1.57s-.77-1.06-.46-1.57c.32-.51.03-.93-.65-.93-.67 0-.93-.3-.57-.66.37-.36.16-1.26-.45-2s-.82-1.34-.46-1.34.1-1.01-.59-2.25c-.68-1.24-1.15-2.59-1.03-3 .11-.41-.31-.75-.96-.75-.64 0-.87-.3-.51-.66.37-.36.16-1.26-.45-2s-.82-1.34-.46-1.34.1-1.01-.59-2.25-1.32-2.59-1.41-3-.27-1.09-.4-1.5c-.14-.41-.19-1.09-.13-1.5.07-.41-.23-.75-.67-.75-.43 0-.86-.97-.95-2.16s-.74-2.53-1.46-2.98c-.71-.46-.91-.84-.43-.84.48-.01.31-.69-.37-1.52s-.95-1.5-.59-1.5.1-1.01-.58-2.25-1.38-3.13-1.56-4.21c-.17-1.07-.87-2.3-1.55-2.73-.67-.43-.83-.79-.35-.79.48-.01.37-.62-.24-1.36s-.82-1.64-.45-2c.36-.36.1-.66-.57-.66-.68 0-.97-.42-.65-.93.31-.51.11-1.22-.46-1.57s-.77-1.06-.46-1.57c.32-.51.1-.93-.48-.93s-.97-.34-.87-.75c.43-1.7-1.43-7.25-2.44-7.25-.59 0-.8-.28-.45-.63s.1-1.59-.54-2.75c-.64-1.17-1.31-3-1.49-4.08-.17-1.07-.87-2.3-1.55-2.73-.67-.43-.83-.79-.35-.79.48-.01.31-.69-.37-1.52s-.91-1.5-.51-1.5c.41 0 .04-1.07-.82-2.39-.86-1.31-1.29-2.66-.95-3 .34-.33 6.06-.61 12.72-.61h12.11l2.85 7.75c1.57 4.26 5.24 13.83 8.14 21.25 2.91 7.42 8.71 22.44 12.89 33.37s7.94 20.47 8.35 21.2c.96 1.72 3.08.43 3.47-2.11.17-1.08.66-2.52 1.09-3.21s.41-1.26-.03-1.27c-.45 0-.26-.36.41-.79.68-.43 1.38-1.66 1.55-2.73.18-1.08.82-2.86 1.43-3.96.6-1.1 1.26-2.9 1.45-4s.68-2.24 1.07-2.54c.4-.3.88-1.43 1.05-2.5.18-1.08.88-2.97 1.56-4.21s.94-2.25.58-2.25-.15-.6.46-1.34.82-1.64.45-2c-.36-.36-.05-.66.68-.66s1.04-.3.68-.66c-.37-.36-.16-1.26.45-2s.72-1.35.24-1.36c-.48 0-.28-.38.43-.84.72-.45 1.37-1.79 1.46-2.98s.57-2.16 1.06-2.16.65-.65.34-1.44c-.3-.78-.16-1.57.3-1.75.47-.17 1.01-1.21 1.2-2.31s.67-2.24 1.06-2.54c.4-.3.88-1.43 1.05-2.5.18-1.08.88-2.97 1.56-4.21s.94-2.25.58-2.25-.09-.67.59-1.5.95-1.5.6-1.5c-.36 0 .09-1.12.99-2.5s1.35-2.5 1-2.5.1-1.12 1-2.5 1.31-2.5.9-2.5c-.4 0-.17-.67.51-1.5s.85-1.51.37-1.52c-.48 0-.32-.36.35-.79.68-.43 1.4-1.88 1.6-3.23.37-2.45.45-2.46 13.11-2.74l12.72-.28-.64 2.28c-.35 1.25-1.03 3.18-1.51 4.28s-2.51 6.28-4.5 11.5-5.22 13.55-7.17 18.5-3.9 9.9-4.32 11c-1.98 5.12-6.28 16.2-6.99 18-.43 1.1-1.56 4.03-2.5 6.5-.95 2.47-2.13 5.28-2.62 6.24-.5.95-.9 2.18-.9 2.72s-1.12 3.44-2.5 6.45c-1.38 3-2.5 5.86-2.5 6.34s-.9 2.74-2 5.01c-1.1 2.28-2 4.58-2 5.11s-.97 3.14-2.16 5.8-2.09 5.17-2 5.58m-65.45 128.8c-7.28 2.68-25.02 3.55-33.39 1.65-6.25-1.43-14-4.89-18.68-8.35-1.75-1.29-3.5-2.35-3.88-2.35-.68 0-9.44-9.04-9.44-9.74 0-.35-1.39-2.1-3.79-4.76-1.51-1.69-4.41-8.16-4.91-10.98-.2-1.09-.76-2.38-1.25-2.87s-.66-1.51-.36-2.27c.29-.76.12-1.38-.37-1.38-1.12 0-1.26-1.77-1.28-16-.01-12.58.17-14.92 1.32-16.77.42-.68.48-1.68.14-2.23s-.16-1 .41-1c.56 0 .77-.67.45-1.5-.32-.85-.02-1.5.7-1.5.7 0 1-.27.66-.61-.33-.34.47-2.31 1.78-4.39s2.11-4.05 1.78-4.39c-.34-.34-.09-.61.55-.61.65 0 1.17-.43 1.17-.95 0-.87 1.54-2.8 6.82-8.55 2.43-2.64 5.49-5.06 8.33-6.58 1.27-.68 2.91-1.84 3.65-2.58s2.21-1.34 3.27-1.34 1.93-.41 1.93-.9c0-1.15 5.94-3.26 7.11-2.53.49.3.89.14.89-.35s1.5-.95 3.34-1.02 4.42-.5 5.75-.96c4.11-1.42 19.13-.4 24.24 1.64 1.56.62 3.25.88 3.75.57.51-.31.92-.2.92.24.01.45 2.7 1.93 6 3.31s5.99 2.84 6 3.25c0 .41.48.75 1.07.75 1.17 0 10.93 8.92 10.93 9.98 0 1.14-12.06 15.02-13.05 15.02-.53 0-2.9-1.97-5.27-4.37-4.98-5.05-11.42-8.21-20.78-10.2-7.35-1.55-12.99-.65-21.9 3.53-7.46 3.5-8.96 4.59-12.1 8.85-5.14 6.99-7.9 15.2-7.9 23.46 0 16.94 7.1 30.92 18.7 36.8 2.64 1.34 4.94 2.74 5.11 3.12.18.39.97.45 1.75.15.79-.31 1.44-.1 1.44.45s1.01.99 2.25.99c1.24-.01 5.17.05 8.75.14 3.63.09 8.04-.46 10-1.24 8.3-3.33 10-4.16 10-4.9 0-.43.5-.78 1.11-.78.6 0 1.97-1.1 3.02-2.44 2.44-3.1 5.45-4.07 7.38-2.38.83.73 2.86 2.44 4.53 3.82 5.58 4.62 6.96 6 6.96 6.94 0 1.66-8.86 10-14.38 13.53-2.94 1.88-8 4.39-11.23 5.58M643.5 694.23c-3.71 1.86-15.3 2.81-22.02 1.8-2.76-.42-6.93-1.73-9.26-2.92-4.87-2.48-10.94-8.57-11.83-11.86-.33-1.24-.93-2.25-1.33-2.25-.87 0-.94-.49-1.4-9.5-.2-3.85.08-7.56.61-8.25.54-.69.64-1.25.23-1.25s-.18-.67.5-1.5.97-1.5.63-1.5c-.76 0 2.24-3.74 4.73-5.89 1.03-.89 2.46-2.17 3.18-2.86s2.21-1.25 3.31-1.25c1.09 0 2.15-.49 2.34-1.08.52-1.55 6.25-2.01 23.53-1.9l15.21.09.64-2.55c.36-1.41.38-3.24.07-4.07-.32-.83-.52-1.62-.44-1.75.77-1.3-3.27-5.11-7.71-7.29-4.91-2.4-6.22-2.63-11.68-2.01-5.83.66-14.4 4.11-17.93 7.21-1.45 1.28-2.3.69-7.82-5.32-.48-.53-.93-1.01-1.34-1.46-2.47-2.66-3.8-4.08-3.65-5.33.2-1.64 2.93-2.98 8.93-6.43 3.58-2.06 7.8-3.83 9.4-3.93 1.59-.1 3.39-.56 4-1.02 1.49-1.14 26.6-1.26 26.6-.12 0 .49.67.64 1.5.32.83-.31 1.5-.09 1.5.5s.67.82 1.5.5c.83-.31 1.5-.05 1.5.59s.45.89 1 .55 1-.11 1 .5.45.84 1 .5 1-.25 1 .2c0 .46 1 1.27 2.22 1.81 3.05 1.36 8.48 8.76 9.73 13.27.62 2.2 1.04 16.68 1.04 35.47L674 696h-9.97c-8.13 0-9.87-.26-9.43-1.4.29-.77.08-1.68-.49-2.03-.56-.35-.77-1.29-.46-2.1.8-2.08-1.88-1.86-4.77.39-1.31 1.02-3.73 2.54-5.38 3.37M490 394.43V516h19.02l-.03-120.67c-.02-86.69-.33-121.04-1.13-122-.61-.73-.8-1.33-.44-1.33 1.31 0-4.13-4.77-6.18-5.42-2.72-.87-8.78 1.68-10.16 4.27-.76 1.41-1.08 38.42-1.08 123.58m13 403.07-.5 27-10.75.28-10.75.29V740h20v4.44c0 4.59 1.27 6.61 2.69 4.26.44-.74 2.37-2.44 4.28-3.77 1.91-1.34 4.08-2.99 4.82-3.68.75-.69 2.67-1.25 4.28-1.25s2.93-.34 2.93-.75c0-.63 15.51-.77 17-.15.28.11.95.29 1.5.4 2.4.46 9.24 4.21 11.85 6.5 1.57 1.38 3.99 4.75 5.4 7.5 4.59 9.02 5.18 13.94 5.21 43.75L561 825h-10.44c-5.74 0-10.68-.38-10.96-.84-.29-.46-.58-12.61-.65-27-.07-14.38-.52-26.39-1-26.69-.47-.29-.61-1.19-.3-2s.04-1.47-.6-1.47-.89-.45-.55-1 .11-1-.5-1-.89-.37-.61-.82c.7-1.13-2.94-4.09-7.24-5.89-4.75-1.99-12.47-.96-17.48 2.33-6.68 4.38-7.11 6.44-7.67 36.88m56-102.6c0 .74-4.16 1.1-12.79 1.1-12.38 0-12.79-.07-12.95-2.16-.09-1.19-.52-2.43-.96-2.75s-.96-1.49-1.15-2.59-.85-2.9-1.45-4c-.61-1.1-1.25-2.88-1.43-3.96-.17-1.07-.8-2.25-1.38-2.61s-.99-.95-.9-1.31c.37-1.51-1.22-6.62-2.07-6.62-.51 0-.87-.34-.8-.75.06-.41.03-.97-.08-1.25-.1-.28-.39-1.61-.64-2.96s-1-2.8-1.68-3.23c-.67-.43-.83-.79-.35-.79.48-.01.31-.69-.37-1.52s-.95-1.5-.59-1.5.1-1.01-.58-2.25-1.38-3.13-1.56-4.21c-.17-1.07-.8-2.25-1.38-2.61s-1.02-.94-.98-1.29c.05-.35.06-.75.02-.89-.05-.14-.28-1.36-.53-2.71s-1-2.8-1.68-3.23c-.67-.43-.83-.79-.35-.79.48-.01.31-.69-.37-1.52s-.95-1.5-.59-1.5.1-1.01-.58-2.25-1.38-3.13-1.56-4.21c-.17-1.07-.8-2.25-1.38-2.61s-1.02-.94-.98-1.29c.05-.35.06-.75.02-.89-.05-.14-.28-1.36-.53-2.71s-.78-2.7-1.18-3c-.39-.3-.88-1.44-1.07-2.54s-.64-2.22-1-2.5-.78-1.27-.94-2.22c-.25-1.53 1.01-1.75 11.5-2l11.79-.28 8.28 22.5c4.55 12.38 9.02 24.86 9.93 27.75 2.02 6.4 3.78 6.81 4.65 1.08.11-.73.55-1.89.98-2.58s.41-1.26-.03-1.27c-.45 0-.26-.36.41-.79.68-.43 1.37-1.66 1.53-2.73.17-1.08.66-2.52 1.09-3.21s.41-1.26-.03-1.27c-.45 0-.26-.36.41-.79.68-.43 1.37-1.66 1.53-2.73.17-1.08.66-2.52 1.09-3.21s.41-1.26-.03-1.27c-.45 0-.26-.36.41-.79.68-.43 1.38-1.66 1.55-2.73.18-1.08.88-2.97 1.56-4.21s.94-2.25.58-2.25-.09-.67.59-1.5.91-1.5.5-1.5-.18-.67.5-1.5.95-1.5.59-1.5-.1-1.01.59-2.25 1.32-2.59 1.41-3 .27-.97.41-1.25.36-.95.5-1.5.36-1.34.49-1.75c.14-.41.19-1.09.13-1.5-.07-.41.33-.75.88-.75s.89-.56.75-1.25c-.19-.93 2.75-1.32 11.5-1.53l1.05-.03c6.65-.16 9.62-.23 10.41 1.05.64 1.03-.13 2.94-1.53 6.4-.09.22-.18.44-.28.67-1.15 2.86-2.7 6.77-3.44 8.69s-2.95 7.61-4.9 12.62c-1.96 5.02-3.56 9.45-3.56 9.85s-.61 2.15-1.36 3.88-2.05 4.95-2.89 7.15-2.3 6.03-3.24 8.5-2.13 5.29-2.63 6.26-1.61 3.9-2.46 6.5c-.86 2.61-2.2 6.16-2.99 7.89S559 694.3 559 694.9m-70-41.65V696h-24v-85.5h24Zm-69.47 153.79c.42.69 1.75.89 3.34.49 1.45-.36 3.42-.73 4.38-.81s1.75-.45 1.75-.81c0-.37 1.46-1.27 3.25-2.01s4.07-2.04 5.08-2.87c1.98-1.65 6.12-9.03 5.07-9.03-.36 0-.13-.62.5-1.38 1.73-2.08 2.67-13.62 1.12-13.62-.82 0-1.02-.85-.61-2.5.36-1.44.2-2.5-.39-2.5-.56 0-.97-.34-.9-.75.65-4.16-6.93-11.52-14.05-13.64-6.79-2.01-7.55-2.01-13.08.14-6.12 2.37-8.16 3.99-11.57 9.18-2.74 4.15-2.92 5.05-2.92 14.5 0 11.02.96 13.9 6.54 19.62 3.19 3.25 8.68 5.98 10.62 5.27.64-.24 1.48.09 1.87.72m298.47-.16c0 1.32 4.63 1.52 5.42.24.3-.48 1.77-.87 3.27-.87s2.9-.51 3.1-1.13c.21-.61.83-1.12 1.39-1.12 1.3 0 6.88-5.77 8.73-9.02 1.68-2.94 2.12-5.37 2.46-13.79.14-3.47-.14-6.55-.63-6.85-.48-.3-.63-1.17-.34-1.94.3-.77.07-1.4-.49-1.4-.57 0-.77-.41-.46-.92s-.14-1.63-1.01-2.5-1.22-1.58-.77-1.58c1.6 0-5.18-5.53-8.76-7.14-6.21-2.8-9.54-3.11-15.33-1.43-11.05 3.21-15.8 10.54-15.86 24.42-.03 6.84.4 9.5 2.05 12.72 2.3 4.49 9.8 11.82 11.2 10.95.49-.3 1.15-.14 1.46.37.32.51 1.47.69 2.57.4 1.12-.29 2-.03 2 .59m-102.26.53c.41.41 2.1.47 3.75.14 4.99-1 6.98-1.38 7.68-1.47 1.22-.15 9.33-8.42 9.08-9.26-.14-.45.28-.82.92-.82s.87-.3.51-.66c-.37-.36-.16-1.26.45-2s.78-1.34.37-1.34-.15-.72.58-1.6c1.69-2.03 1.79-14.65.13-16.64-.65-.79-.93-1.71-.6-2.03.32-.33-.25-2.06-1.26-3.87-5.37-9.51-15.27-13.84-24.45-10.69-8.24 2.82-12.69 8.57-14.89 19.23-1.37 6.66-.79 12.04 1.96 18.27 1.75 3.95 7.96 11.22 9.75 11.41 4.41.47 5.38.69 6.02 1.33m-133.16-205.7c-6.91 4.04-18.29-3.02-19.37-12.01-.66-5.52 2.7-12.04 7.46-14.49 2.63-1.35 12.33-1.48 12.33-.17 0 .59.45.8 1 .46s1-.14 1 .44.64 1.06 1.42 1.06c2.34 0 5.58 6.34 5.58 10.93 0 6.14-2.45 9.72-9.42 13.78m148.02 77.48c2.58.53 4.71.36 6.08-.49.63-.39 1.86-.43 2.73-.1.87.34 1.59.12 1.59-.49s.83-1.11 1.84-1.11c1.98 0 8.42-6.41 7.43-7.4-.33-.33-.03-.6.67-.6.72 0 1.02-.65.7-1.5-.32-.83-.14-1.5.39-1.5 1.08 0 1.3-3.97.36-6.42-.5-1.3-2.42-1.58-10.75-1.58-5.59 0-11.68.44-13.56.98-8.17 2.34-10.74 9.71-5.19 14.85 4.4 4.07 5.64 4.93 7.71 5.36M578 455v24h-8.33c-4.59 0-8.64-.3-9-.67-.37-.36-.67-5.76-.67-12V455Zm-136.01-42.75c.01 6.46-.1 11.66-.24 11.54-.14-.11-4.19-.35-9-.53l-8.75-.34v-9.88c0-5.43-.27-10.57-.59-11.42-.51-1.33.71-1.52 8.99-1.33l9.59.21Zm.01 42.25v23.23l-8.29.18c-4.55.1-8.6-.14-9-.53-.39-.39-.71-5.56-.71-11.48v-10.76l9-.32Zm135.78-39.25-.28 11.25-8.17.29c-4.49.16-8.37-.07-8.63-.5s-.47-5.63-.46-11.54V404h17.83Zm0-50.88-.28 11.13-16.5.58v-22.85l6.75-.44c.48-.03.95-.06 1.39-.09 4.24-.29 6.48-.45 7.63.6 1.28 1.16 1.21 3.82 1.06 9.43-.02.52-.03 1.07-.05 1.64m0-57.12-.28 11.25-16.5.58V296h17.07Z" fill="#303d4a"/>
</svg>
